<?xml version="1.0" encoding="UTF-8" standalone="no"?>
<svg
   xmlns:dc="http://purl.org/dc/elements/1.1/"
   xmlns:cc="http://creativecommons.org/ns#"
   xmlns:rdf="http://www.w3.org/1999/02/22-rdf-syntax-ns#"
   xmlns:svg="http://www.w3.org/2000/svg"
   xmlns="http://www.w3.org/2000/svg"
   xmlns:sodipodi="http://sodipodi.sourceforge.net/DTD/sodipodi-0.dtd"
   xmlns:inkscape="http://www.inkscape.org/namespaces/inkscape"
   version="1.1"
   id="Capa_1"
   x="0px"
   y="0px"
   viewBox="0 0 512 512"
   style="enable-background:new 0 0 512 512;"
   xml:space="preserve"
   sodipodi:docname="file.svg"
   inkscape:version="1.0.1 (0767f8302a, 2020-10-17)"><metadata
   id="metadata53"><rdf:RDF><cc:Work
       rdf:about=""><dc:format>image/svg+xml</dc:format><dc:type
         rdf:resource="http://purl.org/dc/dcmitype/StillImage" /></cc:Work></rdf:RDF></metadata><defs
   id="defs51">
	

		
	
			
			
			
			
			
		</defs><sodipodi:namedview
   pagecolor="#ffffff"
   bordercolor="#666666"
   borderopacity="1"
   objecttolerance="10"
   gridtolerance="10"
   guidetolerance="10"
   inkscape:pageopacity="0"
   inkscape:pageshadow="2"
   inkscape:window-width="1920"
   inkscape:window-height="1002"
   id="namedview49"
   showgrid="false"
   inkscape:zoom="1.1310946"
   inkscape:cx="226.08512"
   inkscape:cy="261.19186"
   inkscape:window-x="0"
   inkscape:window-y="41"
   inkscape:window-maximized="1"
   inkscape:current-layer="Capa_1" />
<path
   id="rect878"
   style="fill:#800080;stroke-width:4.40621;opacity:0.3634432"
   d="M 98.937347,53.270489 H 370.02983 c 76.4897,71.980601 0,0 76.4897,71.980601 V 492.95274 H 98.937347 Z"
   sodipodi:nodetypes="cccccc" /><path
   d="m 459.36,100.64 -96,-96 C 360.341,1.645 356.253,-0.024 352,0 H 96 C 69.49,0 48,21.49 48,48 v 416 c 0,26.51 21.49,48 48,48 h 320 c 26.51,0 48,-21.49 48,-48 V 112 c 0.025,-4.253 -1.645,-8.34 -4.64,-11.36 z M 432,464 c 0,8.837 -7.163,16 -16,16 H 96 c -8.837,0 -16,-7.163 -16,-16 V 48 c 0,-8.837 7.163,-16 16,-16 h 240 v 64 c 0,17.673 14.327,32 32,32 h 64 z"
   id="path2"
   style="fill:#800080" /><rect
   x="353.13397"
   y="384"
   width="23.205769"
   height="32"
   id="rect4"
   style="fill:#ffffff;stroke-width:0.851575;fill-opacity:1" /><rect
   x="167.48782"
   y="224"
   width="208.85193"
   height="32"
   id="rect6"
   style="fill:#ffffff;stroke-width:0.851575;fill-opacity:1" /><rect
   x="167.48782"
   y="304"
   width="208.85193"
   height="32"
   id="rect8"
   style="fill:#ffffff;stroke-width:0.851575;fill-opacity:1" /><rect
   x="167.48782"
   y="384"
   width="162.44038"
   height="32"
   id="rect10"
   style="fill:#ffffff;stroke-width:0.851575;fill-opacity:1" />
<g
   id="g18">
</g>
<g
   id="g20">
</g>
<g
   id="g22">
</g>
<g
   id="g24">
</g>
<g
   id="g26">
</g>
<g
   id="g28">
</g>
<g
   id="g30">
</g>
<g
   id="g32">
</g>
<g
   id="g34">
</g>
<g
   id="g36">
</g>
<g
   id="g38">
</g>
<g
   id="g40">
</g>
<g
   id="g42">
</g>
<g
   id="g44">
</g>
<g
   id="g46">
</g>
</svg>
